<?xml version="1.0" encoding="utf-8"?>
<!-- Generator: Adobe Illustrator 19.2.1, SVG Export Plug-In . SVG Version: 6.00 Build 0)  -->
<svg version="1.1" id="layer" xmlns="http://www.w3.org/2000/svg" xmlns:xlink="http://www.w3.org/1999/xlink" x="0px" y="0px"
	 viewBox="0 0 652 652" style="enable-background:new 0 0 652 652;" xml:space="preserve">
<style type="text/css">
	.st0{fill:#DE2B26;}
	.st1{filter:url(#Adobe_OpacityMaskFilter);}
	.st2{fill:#FFFFFF;}
	.st3{mask:url(#b_1_);fill:#DE2B26;}
</style>
<path class="st0" d="M378.7,383.5h-46.1l36-106.6h-60.8l11.7-34.8h156.2l-11.9,34.8H415L378.7,383.5z M127.5,243.3h42.9l10.6,86
	l76.8-87.3h48.6l-47.9,141.5h-42.3l26.4-78.2l-68.5,78.2l-28.4-0.1l-9.1-77.6l-55.1,77.7h-52L127.5,243.3z M583.5,280.9
	c-8.2-6.6-18-11.2-29.4-11.2c-11.7,0-23.5,5.3-26.5,12.1c-1.9,4.5,0.7,8.1,8,11.1c2.2,0.8,4,1.3,19.2,5.1
	c30,7.2,38.5,18.9,29.5,39.2c-14.1,31.8-49.7,50.5-96.6,50.5c-23.2,0-40-5.5-55.4-15.9l27.2-30.7c10.8,9.8,25.9,15.5,40.5,15.5
	c14.6,0,26.4-5.5,30.1-13.8c3.4-7.6-1.6-11.2-22.5-16.3c-19.6-4.7-26.7-7.4-31.9-11.9c-6.7-6.2-7.5-15.3-2.1-27.6
	c12.5-28.4,47.4-47.7,85.9-47.7c20,0,36.1,2.6,52,10L583.5,280.9L583.5,280.9z"/>
<defs>
	<filter id="Adobe_OpacityMaskFilter" filterUnits="userSpaceOnUse" x="605.4" y="266.7" width="16.8" height="17.1">
		<feColorMatrix  type="matrix" values="1 0 0 0 0  0 1 0 0 0  0 0 1 0 0  0 0 0 1 0"/>
	</filter>
</defs>
<mask maskUnits="userSpaceOnUse" x="605.4" y="266.7" width="16.8" height="17.1" id="b_1_">
	<g class="st1">
		<path id="a_1_" class="st2" d="M605.4,266.7h16.8v17.1h-16.8V266.7z"/>
	</g>
</mask>
<path class="st3" d="M613.8,274.8c1.2,0,2.2-0.1,2.2-1.5c0-1.1-1.1-1.3-2.1-1.3h-1.9v2.8L613.8,274.8L613.8,274.8z M612.1,280.2
	h-1.5v-9.5h3.6c2.3,0,3.4,0.8,3.4,2.7c0,1.7-1,2.4-2.5,2.6l2.6,4.2H616l-2.4-4h-1.5L612.1,280.2L612.1,280.2z M613.8,268.2
	c-3.7,0-6.6,2.9-6.6,7c0,3.9,2.5,7.1,6.6,7.1c3.7,0,6.5-2.9,6.5-7.1C620.3,271.1,617.5,268.2,613.8,268.2z M613.8,283.8
	c-4.9,0-8.4-3.7-8.4-8.5c0-5.1,3.9-8.5,8.4-8.5c4.5,0,8.4,3.4,8.4,8.5C622.2,280.4,618.3,283.8,613.8,283.8L613.8,283.8z"/>
<path class="st0" d="M58,327.8L58,327.8l-0.2,0l-12.3,0.8c-1.2,0.1-0.6,1.4-0.6,1.4c1.1,2.2,2.3,4.4,3.5,6.6c0,0,0.2,0.7,1.5,0.5
	l7.7-1l0.3,0v0l0.1,0l6.2-8.7L58,327.8L58,327.8z M203.6,249.8c1.2,0.9,2.7,2,3.9,3c0,0,1.2,0.6,1.7-0.4l16.5-37.4
	c0.8-1.6-0.2-2.2-0.2-2.2c-1.8-1.4-3.8-2.9-5.6-4.3c0,0-1.6-0.9-2.3,0.8l-14.5,38.8C202.7,249.2,203.6,249.8,203.6,249.8
	 M213.2,257.4c1.2,1,2.4,2,3.6,3.1c0,0,0.9,0.8,1.7-0.3l21.5-33.3c0,0,0.9-1.2-0.3-2.2c-1.8-1.6-3.7-3.2-5.5-4.8
	c0,0-0.9-0.9-1.8,0.6l-19.6,35.1C212.1,256.6,213.2,257.4,213.2,257.4 M79,291.2c1.3,0.3,1.1-0.7,1.1-0.7c-0.2-1.2-0.5-2.8-0.7-4
	c0,0-0.1-0.9-1.4-1.3l-9.3-3.3l-43.9-15.3c-1.3-0.4-1.1,0.9-1.1,0.9c0.3,1.9,0.6,4,1,5.9c0,0,0.1,0.9,1,1.2l40.8,12.9L79,291.2z
	 M81.3,296.3c0,0-0.1-1-1.3-1.3l-14.8-3.8l-37.6-9.6c-1.1-0.2-0.8,0.8-0.8,0.8c0.5,2,1.2,4.5,1.7,6.6c0,0,0,0.6,1.2,0.9l33.6,7.4
	l17.9,3.9c1.4,0.3,1-0.8,1-0.8C81.9,299,81.5,297.6,81.3,296.3 M77.5,281.4c1.4,0.5,1.3-0.5,1.3-0.5c-0.1-1.3-0.2-2.6-0.2-3.9
	c0,0,0-0.9-1.4-1.4l-4.7-2l-49.5-21.9c-0.9-0.4-0.8,0.9-0.8,0.9c0.1,2,0.2,4,0.4,5.9c0,0,0.2,0.7,0.9,1l46.6,19L77.5,281.4z
	 M174.3,232.3c1.4,0.7,2.8,1.3,4.2,2c0,0,1.2,0.5,1.2-0.8l0.5-31.2l0.1-15.6c0-3.1-1.2-3.3-1.2-3.3c-1.8-0.9-3.5-1.7-5.3-2.6
	c0,0-1.9-0.9-1.7,2.1l0.5,19.9l0.9,27.5C173.6,232.4,174.3,232.3,174.3,232.3 M189.8,238.9l4.9-36.3l1-7.8c0,0,0.4-2.2-0.7-2.9
	c-1.8-1.1-3.6-2.1-5.4-3.1c0,0-2-1.5-2.2,1.1l-1,12.3l-2.8,33.2c-0.1,1.5,0.7,1.9,0.7,1.9c1.4,0.8,2.8,1.5,4.1,2.4
	C188.4,239.7,189.7,239.8,189.8,238.9 M193.9,243.1c1.4,0.9,2.8,1.8,4.2,2.8c0,0,1.1,0.8,1.5-0.6l11-40.4l0.3-1.2
	c0.4-1.5-0.9-2.1-0.9-2.1c-1.7-1.2-3.5-2.4-5.3-3.5c0,0-1.6-1.1-2,0.8l-1.1,4.5l-8.3,37.8C193.1,242.8,193.9,243.1,193.9,243.1
	 M299.9,297c-1.1-1.9-2.3-3.9-3.5-5.8c0,0-0.5-0.8-2.3-0.6l-3.3,9.9l8-1.6C300.5,298.5,299.9,297,299.9,297 M189.8,415.6
	c-1.4-0.5-2.8-1-4.1-1.6c0,0-1-0.4-0.9,1.1l4.4,49.3c0.2,1.7,1,1.9,1,1.9c2,0.8,4.1,1.6,6.1,2.3c0,0,1.5,0.5,1.3-1.1l-6.5-50.5
	C191,415.8,189.8,415.6,189.8,415.6 M169.8,406.5c-1.4-0.8-2.5-1.4-3.9-2.2c0,0-1.4-1-1.5,1.3l-6,43.1c-0.2,1.7,0.7,2.3,0.7,2.3
	c2,1.2,4,2.3,6.1,3.4c0,0,1.6,1.4,1.6-1.3l4-44.2C171,407.2,169.8,406.5,169.8,406.5 M140.8,386.5c-1.3-1.1-2.6-2.2-3.9-3.3
	c0,0-0.7-1.1-1.9,0.7L114,416.1c-0.9,1.4-0.2,1.9-0.2,1.9c1.9,1.7,4,3.5,6,5.2c0,0,1,1.1,2-0.5l19.1-33.7
	C141.7,387.5,140.8,386.5,140.8,386.5 M221.9,265.2c1.2,1.2,2.4,2.3,3.6,3.5c0,0,0.9,1,2-0.2l26-28.4c1.2-1.2,0.2-2.2,0.2-2.2
	c-1.7-1.7-3.5-3.4-5.2-5.1c0,0-1-1.1-2.3,0.4l-24.2,30C220.9,264.4,221.9,265.2,221.9,265.2 M308.4,312.3c-1-2-1.8-3.4-2.8-5.3
	c0,0-0.7-1.2-2.4-1l-14.9,1.6l-2.8,8.1l22.2-1.4C309.3,314.1,308.4,312.3,308.4,312.3 M273.7,355.4c0,0,0.2,1.1,1.2,1.5l34.6,12.4
	l18.3,6.5c1.4,0.5,1.6-1,1.6-1c-0.3-1.9-0.6-3.4-0.9-5.3c0,0,0-0.9-1.4-1.4l-16.3-5.3l-36.4-11.6c-1.6-0.5-1.2,1-1.2,1
	C273.3,353.2,273.5,354.3,273.7,355.4 M180,411.6c-1.4-0.6-2.6-1.3-4.1-1.9c-1-0.4-1.3,0.1-1.3,1.7l-0.8,45.8c0,1.7,0.8,2.1,0.8,2.1
	c2.2,1.1,4.4,2.1,6.5,3.1c0,0,1.1,0.4,1.1-1.3l-1.2-47.8C180.8,411.8,180,411.6,180,411.6 M160,400.7c-1.3-0.8-2.8-1.8-4-2.6
	c0,0-1.1-1-1.5,0.6l-11.2,39.9c-0.7,2.6,0.4,2.7,0.4,2.7c2.1,1.4,4.2,2.8,6.3,4.2c0,0,1,0.9,1.5-1.6l9.1-40.5
	C161,401.3,160,400.7,160,400.7 M150.2,394c-1.3-1-2.9-2.1-4.2-3.1c0,0-0.9-0.7-1.6,1l-16,35.9c-0.9,2,0,2.4,0,2.4
	c2,1.6,4.1,3.1,6.1,4.6c0,0,1,1.2,1.8-0.9l14.1-37.4C151.3,394.6,150.2,394,150.2,394 M131.7,378.5c-1.3-1.2-2.7-2.6-4-3.9
	c0,0-0.5-0.7-1.7,0.5l-25.8,28.3c-0.9,0.9-0.3,1.5-0.3,1.5c2,2,4.1,4,6,5.9c0,0,0.7,0.7,1.7-0.3l23.9-29.7
	C132.6,379.3,131.7,378.5,131.7,378.5 M123,369.6c-1.2-1.3-2.3-2.6-3.5-3.9c0,0-0.7-1-2.1,0l-30.4,23.7c-1,0.8-0.4,1.3-0.4,1.3
	c1.9,2.2,3.9,4.4,6,6.5c0,0,0.5,0.5,1.4-0.2l28.8-25.5C123.8,370.4,123,369.6,123,369.6 M109.5,356.1l-6.4,3.5L91,376.7l23.3-14.5
	c1.5-0.9,0.6-1.9,0.6-1.9c-1.1-1.3-2.3-2.8-3.3-4.1C111.5,356.3,111,355.4,109.5,356.1 M276,360.7c-1.8-0.8-1.5,0.6-1.5,0.6
	c0.1,1.1,0.2,2.3,0.2,3.4c0,0,0.1,1.1,1,1.5l30.8,13.8l23.2,10.3c1.3,0.6,1.2-0.6,1.2-0.6c-0.1-1.7-0.2-3.4-0.3-5.2
	c0,0,0.1-1-0.6-1.4l-21.7-9.2L276,360.7z M32,297.1c-1.1-0.2-0.8,0.9-0.8,0.9c0.7,2.2,1.5,4.4,2.4,6.6c0,0,0,0.8,1.3,0.9l25.5,3
	l15.6,1.9l4.1-5.8l-18.1-2.9C62.1,301.8,32,297.1,32,297.1z M38.1,312.8c-1.4-0.1-0.7,1.2-0.7,1.2c0.9,2.1,1.8,4.2,2.8,6.4
	c0,0,0.5,1,1.7,1l16.6,0.2l9.7,0.1l5-7l-13.6-0.7C59.6,313.9,38.1,312.8,38.1,312.8z M110.1,223.7c0.6,0.7,1.2,0.4,1.2,0.4
	c0.9-0.3,2.1-0.6,3.1-0.8c0,0,0.8-0.2,0.3-1l-35.4-54.9c-0.7-1.3-1.7-0.8-1.7-0.8c-1.4,0.4-2.7,0.8-4,1.2c0,0-1.4,0.2-0.7,1.6
	L110.1,223.7L110.1,223.7z M132.3,214.3l2.6,6.4c0.3,0.9,1.6,1,1.6,1c1.2,0.1,2.4,0.2,3.6,0.4c0,0,1.1,0,0.6-0.8l-3.4-9.2
	l-17.4-46.2c-0.4-1.4-1.8-1.6-1.8-1.6c-1.6-0.2-3.1-0.3-4.7-0.5c0,0-1.9-0.2-1.3,1.4C112.1,165.2,132.3,214.3,132.3,214.3z
	 M140.6,210.7l3.6,11c0.4,1,1.3,1.2,1.3,1.2c0.3,0.1,0,0,4,0.8c0,0,1,0.1,0.6-0.9l-4-14.1l-11.6-40.1c-0.5-1.8-2-2-2-2
	c-1.6-0.3-3.1-0.7-4.7-0.9c0,0-1.9-0.5-1.3,1.6L140.6,210.7z M150,207.4l4,16.6c0.4,0.9,1.1,1.1,1.1,1.1c1.4,0.4,2.7,0.8,4.1,1.2
	c0,0,0.9,0,0.7-1l-3.8-19.5l-6.4-32.8c-0.4-1.7-1.5-2.2-1.5-2.2c-1.8-0.6-3.5-1.1-5.3-1.6c0,0-1.8-0.7-1.1,2.6
	C141.8,171.7,150,207.4,150,207.4z M160.7,204.8l3,21.8c0.2,1.5,1.1,1.6,1.1,1.6c1.4,0.5,2.7,1.1,4.1,1.6c0,0,1.1,0.6,1-0.9
	l-2.4-25.5l-2.5-25c-0.2-1.9-1.6-2.3-1.6-2.3c-1.7-0.7-3.4-1.4-5.2-2c0,0-1.7-0.4-1.5,1.5L160.7,204.8
	C160.6,204.7,160.7,204.8,160.7,204.8z M24.1,231.7L78,263.6c1.3,0.6,1.3-0.4,1.3-0.4c0.3-1.8,0.5-2.9,0.6-3.2c0,0,0.3-0.7-0.7-1.4
	l-54-33.8c-1-0.7-1.2,0.6-1.2,0.6c-0.3,1.7-0.6,3-0.8,4.8C23.3,230.1,23.2,231.2,24.1,231.7 M26.6,219.1L80,255.7
	c0.8,0.5,1.1-0.5,1.1-0.5c0.3-1,0.6-1.9,0.9-2.9c0,0,0.4-0.8-0.5-1.4l-52.8-38.2c-1.1-0.8-1.4,0.3-1.4,0.3c-0.5,1.5-1,3-1.4,4.5
	C26,217.6,25.7,218.5,26.6,219.1 M33.5,201.7c-0.9-0.7-1.3,0.4-1.3,0.4c-0.6,1.1-1.4,2.7-1.9,3.9c0,0-0.3,0.8,0.5,1.5l52,40.7
	c0.9,0.6,1.2-0.2,1.2-0.2c0.4-0.9,0.8-1.7,1.3-2.5c0,0,0.6-0.7-0.2-1.4L33.5,201.7L33.5,201.7z M86.4,241.4c0.7,0.6,1.2,0,1.2,0
	c0.5-0.8,1.1-1.5,1.7-2.3c0,0,0.6-0.7,0.1-1.2L40,191.8c-0.9-0.9-1.3,0.2-1.3,0.2c-0.8,1-1.6,2.2-2.4,3.3c0,0-0.8,0.9,0,1.7
	L86.4,241.4L86.4,241.4z M91.1,235.7c0.6,0.6,1.4-0.2,1.4-0.2c0.3-0.3,0.7-0.7,1-1c0.3-0.3,0.5-0.5,0.8-0.8c0,0,0.8-0.4,0.1-1.2
	l-46.2-48.9c-0.9-1-1.6-0.4-1.6-0.4c-1.1,1-2.1,2-3.1,3c0,0-1,0.6-0.1,1.5L91.1,235.7z M96.9,230.9c0.5,0.5,1,0,1,0
	c0.8-0.5,1.5-1.1,2.3-1.6c0,0,0.7-0.3,0.3-1l-43.2-51.7c-0.8-1.1-1.6-0.4-1.6-0.4c-1,0.7-2.4,1.6-3.4,2.3c0,0-1,0.7-0.2,1.6
	L96.9,230.9L96.9,230.9z M103.2,226.9c0.4,0.6,1.2,0,1.2,0c0.8-0.4,1.6-0.8,2.5-1.2c0,0,0.7-0.3,0.4-0.9l-39.3-53.5
	c-0.9-1.4-1.8-0.7-1.8-0.7c-1.3,0.6-2.4,1.1-3.7,1.7c0,0-1.2,0.5-0.5,1.6L103.2,226.9z M124.9,218.2l1.4,2.6
	c0.4,0.6,1.3,0.6,1.3,0.6c1.2-0.1,2.2-0.1,3.4-0.1c0,0,1,0,0.6-1.1l-2.2-4.6l-24.1-51.2c-0.8-1.4-1.7-1.2-1.7-1.2
	c-1.5,0-3,0-4.5,0.1c0,0-1.6-0.1-1,1.3C98.1,164.7,124.9,218.2,124.9,218.2z M23,245.2l51.1,25.5l3.4,1.7c1,0.5,1.1-0.6,1.1-0.6
	c0-1.3,0.1-2.4,0.2-3.5c0,0,0.1-0.7-0.9-1.3l-0.8-0.5l-53.7-28.7c-0.9-0.5-1,0.6-1,0.6c-0.1,1.7-0.2,3.8-0.2,5.6
	C22.2,244,22,244.8,23,245.2 M117.7,221.4c0.3,0.4,0.7,0.7,0.7,0.7s0.5,0.2,1.2,0.1c0.9-0.2,1.8-0.3,2.7-0.4c0,0,1-0.1,0.7-0.7
	l-0.7-1.4l-30.1-54.6c-0.6-1.1-2-0.9-2-0.9c-1.4,0.2-2.8,0.4-4.2,0.6c0,0-1.3,0.3-0.4,2C85.6,166.8,117.5,221,117.7,221.4
	 M314.5,329.9c2.1,0.1,1.4-1.5,1.4-1.5c-0.7-1.7-1.5-3.5-2.3-5.2l-0.3-0.6c-0.6-1.3-1.1-1.2-1.1-1.2l-28.5-0.3l-2.4,6.9l31.5,1.7
	C312.8,329.8,314.5,329.9,314.5,329.9z M320.4,345.4c1.9,0.3,1.6-1,1.6-1c-0.6-1.9-1.3-3.8-2-5.7c0,0-0.5-1.5-1.6-1.6l-5.3-0.6
	l-33.1-4.1l-2,6l35.1,5.8C312.9,344.3,320.4,345.4,320.4,345.4z M324.9,360.8c1.7,0.4,1.5-1,1.5-1c-0.5-1.8-0.9-3.6-1.4-5.4
	c0,0-0.1-1.1-1.3-1.5l-11.3-2.7l-35.9-8l-1.9,5.5l36.9,9.6L324.9,360.8L324.9,360.8z M330.1,397.1l-25-12.7l-28.9-14.5
	c-1.3-0.6-1.3,0.4-1.3,0.4c0,1.2-0.1,2.4-0.1,3.5c0,0,0,1.1,1,1.5l27.2,14.5l26,14c1.6,0.9,1.9-0.3,1.9-0.3c0.1-1.6,0.2-3.2,0.2-4.8
	C331,398.8,331.1,397.6,330.1,397.1 M328.6,410.2l-27.3-16.3l-25.4-15.1c-1.6-0.9-1.7,0.3-1.7,0.3c-0.1,1-0.3,1.9-0.5,2.9
	c0,0-0.2,1,0.7,1.6l24.4,15.4l28.5,18c1.5,0.9,1.7-0.1,1.7-0.1c0.3-1.6,0.6-3.1,0.8-4.8C329.9,412.1,330.3,411.2,328.6,410.2
	 M326.7,423.1l-29.6-20.5l-23-15.7c-1.3-0.8-1.5,0.1-1.5,0.1c-0.3,1.3-0.7,2.4-0.8,2.8c0,0-0.4,0.9,0.7,1.7l21.9,15.9l29.7,21.7
	c1.3,1,1.7,0,1.7,0c0.5-1.4,0.9-2.9,1.4-4.3C327.3,424.8,327.7,423.8,326.7,423.1 M322.5,434.5l-30-23.7l-20.8-16.4
	c-1.1-0.9-1.6,0.1-1.6,0.1c-0.4,0.8-0.8,1.8-1.3,2.7c0,0-0.5,0.7,0.5,1.5l20.2,16.7l30,24.9c1,0.8,1.5,0.1,1.5,0.1
	c0.7-1.3,1.3-2.7,2-4.1C323.1,436.2,323.5,435.3,322.5,434.5 M287.4,418.4L267.9,401c-1-0.8-1.4,0-1.4,0c-0.5,0.8-1.1,1.6-1.6,2.3
	c0,0-0.5,0.8,0.3,1.4l19,17.9l29.2,27.4c1,1,1.7-0.3,1.7-0.3c0.8-1,1.5-2.1,2.2-3.1c0,0,0.7-0.7-0.3-1.7
	C317,445,287.4,418.4,287.4,418.4z M281.8,425.6l-18.4-18.7c-0.7-0.8-1.3-0.2-1.3-0.2c-0.7,0.7-1.2,1.3-2,2c0,0-0.8,0.6,0,1.4
	l18.3,19.5l27.4,29c0.8,0.8,1.7-0.3,1.7-0.3c0.9-0.8,1.7-1.7,2.5-2.6c0,0,0.9-0.6-0.1-1.6L281.8,425.6L281.8,425.6z M275.8,432.4
	L258,412.1c-0.7-0.9-1.3-0.3-1.3-0.3c-0.8,0.6-1.5,1.2-2.3,1.7c0,0-0.7,0.4,0,1.4l17.7,21.4l24.3,29.2c1,1.2,1.8,0.3,1.8,0.3
	c1.1-0.7,2.2-1.5,3.2-2.3c0,0,1-0.5,0-1.6L275.8,432.4L275.8,432.4z M269.3,438.9l-17.4-22.7c-0.5-0.9-1.3-0.4-1.3-0.4
	c-0.8,0.4-1.8,1-2.6,1.4c0,0-0.9,0.3-0.3,1.3l17.5,24.1l21,28.6c0.6,1,1.6,0.4,1.6,0.4c1.3-0.6,2.5-1.2,3.8-1.8c0,0,1.1-0.3,0.1-1.6
	C291.7,468.1,269.3,438.9,269.3,438.9z M262.1,445l-17.2-25.5c-0.6-1-1.4-0.5-1.4-0.5c-1.1,0.4-1.6,0.5-2.7,0.9c0,0-1.2,0.2-0.4,1.4
	l17.3,27.2l16.9,26.4c0.7,1.3,1.7,1,1.7,1c1.3-0.4,2.7-0.8,4-1.2c0,0,1.6-0.3,0.6-1.7C280.8,472.9,262.1,445,262.1,445z
	 M254.2,450.8l-16.9-29.1c-0.6-1.1-1.6-0.7-1.6-0.7c-1,0.2-2,0.3-3,0.5c0,0-1,0.2-0.3,1.4l16.9,31l12.8,23.4c0.7,1.2,1.5,1,1.5,1
	c1.9-0.3,3.2-0.5,4.8-0.8c0,0,1.2-0.2,0.5-1.5C268.8,476,254.2,450.8,254.2,450.8z M245.4,456.2L229,423c-0.5-1.1-1.3-1-1.3-1
	c-1.1,0.1-2.3,0.1-3.5,0.1c0,0-1.1-0.1-0.6,1.2l16.4,35.7l8.4,18.6c0.8,1.6,1.6,1.5,1.6,1.5c1.7,0,3.5-0.1,5.2-0.2
	c0,0,1.3,0.1,0.4-1.7C255.7,477.3,245.4,456.2,245.4,456.2z M235.5,461.2l-15.4-37.9c-0.6-1.4-1.5-1.3-1.5-1.3
	c-1.2,0-2.5-0.2-3.7-0.3c0,0-1.1-0.2-0.5,1.3l15.2,40.8l4.9,13.1c0.6,1.5,1.6,1.5,1.6,1.5c1.7,0.2,3.6,0.4,5.2,0.5
	c0,0,1.4,0.1,0.8-1.5L235.5,461.2L235.5,461.2z M224.5,465.5l-13.7-43.3c-0.3-1.3-1.3-1.3-1.3-1.3c-1.3-0.2-2.6-0.5-3.9-0.7
	c0,0-1.3-0.4-0.8,1.2l13,46.2l1.8,6.4c0.5,1.8,1.6,2,1.6,2c1.8,0.4,3.7,0.7,5.5,1c0,0,1.5,0.4,0.9-1.6L224.5,465.5L224.5,465.5z
	 M212,469l-10.9-48.4c-0.5-1.7-1.3-1.8-1.3-1.8c-1.3-0.4-2.7-0.8-4.1-1.2c0,0-1.2-0.5-0.9,1.3l9.7,51.5c0,0,0.1,1.2,1.5,1.7
	c1.8,0.6,3.6,1.1,5.5,1.6c0,0,1.7,0.5,1.2-1.2C212.8,472.4,212,469,212,469z"/>
</svg>
